<svg width="198" height="80" viewBox="0 0 198 80" fill="none" xmlns="http://www.w3.org/2000/svg">
<g filter="url(#filter0_d_197_1101)">
<mask id="path-1-inside-1_197_1101" fill="white">
<path d="M4 23C4 25.2091 5.79086 27 8 27H11.5996C15.7968 27 19.1992 30.4025 19.1992 34.5996V42.4004C19.1992 46.5975 15.7968 50 11.5996 50H9.5C6.46243 50 4 52.4624 4 55.5C4 58.5376 6.46243 61 9.5 61H182C188.627 61 194 55.6274 194 49V31C194 24.3726 188.627 19 182 19H8C5.79086 19 4 20.7909 4 23Z"/>
</mask>
<path d="M4 23C4 25.2091 5.79086 27 8 27H11.5996C15.7968 27 19.1992 30.4025 19.1992 34.5996V42.4004C19.1992 46.5975 15.7968 50 11.5996 50H9.5C6.46243 50 4 52.4624 4 55.5C4 58.5376 6.46243 61 9.5 61H182C188.627 61 194 55.6274 194 49V31C194 24.3726 188.627 19 182 19H8C5.79086 19 4 20.7909 4 23Z" fill="#31AA52"/>
<path d="M8 27V26H11.5996V27V28H8V27ZM19.1992 34.5996H20.1992V42.4004H19.1992H18.1992V34.5996H19.1992ZM11.5996 50V51H9.5V50V49H11.5996V50ZM9.5 61V60H182V61V62H9.5V61ZM194 49H193V31H194H195V49H194ZM182 19V20H8V19V18H182V19ZM8 19V20C6.34315 20 5 21.3431 5 23H4H3C3 20.2386 5.23859 18 8 18V19ZM194 31H193C193 24.9249 188.075 20 182 20V19V18C189.18 18 195 23.8203 195 31H194ZM182 61V60C188.075 60 193 55.0751 193 49H194H195C195 56.1797 189.18 62 182 62V61ZM4 55.5H5C5 57.9853 7.01472 60 9.5 60V61V62C5.91016 62 3 59.0899 3 55.5H4ZM9.5 50V51C7.01472 51 5 53.0147 5 55.5H4H3C3 51.9101 5.91016 49 9.5 49V50ZM19.1992 42.4004H20.1992C20.1992 47.1498 16.349 51 11.5996 51V50V49C15.2445 49 18.1992 46.0453 18.1992 42.4004H19.1992ZM11.5996 27V26C16.349 26 20.1992 29.8502 20.1992 34.5996H19.1992H18.1992C18.1992 30.9547 15.2445 28 11.5996 28V27ZM8 27V28C5.23857 28 3 25.7614 3 23H4H5C5 24.6569 6.34314 26 8 26V27Z" fill="#ECECEC" fill-opacity="0.86" mask="url(#path-1-inside-1_197_1101)"/>
</g>
<path d="M107.816 40.256C108.221 40.32 108.589 40.4853 108.92 40.752C109.261 41.0187 109.528 41.3493 109.72 41.744C109.923 42.1387 110.024 42.56 110.024 43.008C110.024 43.5733 109.88 44.0853 109.592 44.544C109.304 44.992 108.883 45.3493 108.328 45.616C107.784 45.872 107.139 46 106.392 46H102.232V34.848H106.232C106.989 34.848 107.635 34.976 108.168 35.232C108.701 35.4773 109.101 35.8133 109.368 36.24C109.635 36.6667 109.768 37.1467 109.768 37.68C109.768 38.3413 109.587 38.8907 109.224 39.328C108.872 39.7547 108.403 40.064 107.816 40.256ZM103.688 39.664H106.136C106.819 39.664 107.347 39.504 107.72 39.184C108.093 38.864 108.28 38.4213 108.28 37.856C108.28 37.2907 108.093 36.848 107.72 36.528C107.347 36.208 106.808 36.048 106.104 36.048H103.688V39.664ZM106.264 44.8C106.989 44.8 107.555 44.6293 107.96 44.288C108.365 43.9467 108.568 43.472 108.568 42.864C108.568 42.2453 108.355 41.76 107.928 41.408C107.501 41.0453 106.931 40.864 106.216 40.864H103.688V44.8H106.264ZM119.821 37.232V46H118.365V44.704C118.087 45.152 117.698 45.504 117.197 45.76C116.706 46.0053 116.162 46.128 115.565 46.128C114.882 46.128 114.269 45.9893 113.725 45.712C113.181 45.424 112.749 44.9973 112.429 44.432C112.119 43.8667 111.965 43.1787 111.965 42.368V37.232H113.405V42.176C113.405 43.04 113.623 43.7067 114.061 44.176C114.498 44.6347 115.095 44.864 115.853 44.864C116.631 44.864 117.245 44.624 117.693 44.144C118.141 43.664 118.365 42.9653 118.365 42.048V37.232H119.821ZM123.031 35.808C122.754 35.808 122.519 35.712 122.327 35.52C122.135 35.328 122.039 35.0933 122.039 34.816C122.039 34.5387 122.135 34.304 122.327 34.112C122.519 33.92 122.754 33.824 123.031 33.824C123.298 33.824 123.522 33.92 123.703 34.112C123.895 34.304 123.991 34.5387 123.991 34.816C123.991 35.0933 123.895 35.328 123.703 35.52C123.522 35.712 123.298 35.808 123.031 35.808ZM123.735 37.232V46H122.279V37.232H123.735ZM127.672 34.16V46H126.216V34.16H127.672ZM129.61 41.584C129.61 40.688 129.791 39.904 130.154 39.232C130.517 38.5493 131.013 38.0213 131.642 37.648C132.282 37.2747 132.997 37.088 133.786 37.088C134.469 37.088 135.103 37.248 135.69 37.568C136.277 37.8773 136.725 38.288 137.034 38.8V34.16H138.506V46H137.034V44.352C136.746 44.8747 136.319 45.3067 135.754 45.648C135.189 45.9787 134.527 46.144 133.77 46.144C132.991 46.144 132.282 45.952 131.642 45.568C131.013 45.184 130.517 44.6453 130.154 43.952C129.791 43.2587 129.61 42.4693 129.61 41.584ZM137.034 41.6C137.034 40.9387 136.901 40.3627 136.634 39.872C136.367 39.3813 136.005 39.008 135.546 38.752C135.098 38.4853 134.602 38.352 134.058 38.352C133.514 38.352 133.018 38.48 132.57 38.736C132.122 38.992 131.765 39.3653 131.498 39.856C131.231 40.3467 131.098 40.9227 131.098 41.584C131.098 42.256 131.231 42.8427 131.498 43.344C131.765 43.8347 132.122 44.2133 132.57 44.48C133.018 44.736 133.514 44.864 134.058 44.864C134.602 44.864 135.098 44.736 135.546 44.48C136.005 44.2133 136.367 43.8347 136.634 43.344C136.901 42.8427 137.034 42.2613 137.034 41.6Z" fill="white"/>
<path d="M58 37C57.6044 37 57.2178 36.8827 56.8889 36.6629C56.56 36.4432 56.3036 36.1308 56.1522 35.7654C56.0009 35.3999 55.9613 34.9978 56.0384 34.6098C56.1156 34.2219 56.3061 33.8655 56.5858 33.5858C56.8655 33.3061 57.2219 33.1156 57.6098 33.0384C57.9978 32.9613 58.3999 33.0009 58.7654 33.1522C59.1308 33.3036 59.4432 33.56 59.6629 33.8889C59.8827 34.2178 60 34.6044 60 35C60 35.5304 59.7893 36.0391 59.4142 36.4142C59.0391 36.7893 58.5304 37 58 37ZM58 34C57.8022 34 57.6089 34.0586 57.4444 34.1685C57.28 34.2784 57.1518 34.4346 57.0761 34.6173C57.0004 34.8 56.9806 35.0011 57.0192 35.1951C57.0578 35.3891 57.153 35.5673 57.2929 35.7071C57.4327 35.847 57.6109 35.9422 57.8049 35.9808C57.9989 36.0194 58.2 35.9996 58.3827 35.9239C58.5654 35.8482 58.7216 35.72 58.8315 35.5556C58.9414 35.3911 59 35.1978 59 35C59 34.7348 58.8946 34.4804 58.7071 34.2929C58.5196 34.1054 58.2652 34 58 34ZM66 37C65.6044 37 65.2178 36.8827 64.8889 36.6629C64.56 36.4432 64.3036 36.1308 64.1522 35.7654C64.0009 35.3999 63.9613 34.9978 64.0384 34.6098C64.1156 34.2219 64.3061 33.8655 64.5858 33.5858C64.8655 33.3061 65.2219 33.1156 65.6098 33.0384C65.9978 32.9613 66.3999 33.0009 66.7654 33.1522C67.1308 33.3036 67.4432 33.56 67.6629 33.8889C67.8827 34.2178 68 34.6044 68 35C68 35.5304 67.7893 36.0391 67.4142 36.4142C67.0391 36.7893 66.5304 37 66 37ZM66 34C65.8022 34 65.6089 34.0586 65.4444 34.1685C65.28 34.2784 65.1518 34.4346 65.0761 34.6173C65.0004 34.8 64.9806 35.0011 65.0192 35.1951C65.0578 35.3891 65.153 35.5673 65.2929 35.7071C65.4327 35.847 65.6109 35.9422 65.8049 35.9808C65.9989 36.0194 66.2 35.9996 66.3827 35.9239C66.5654 35.8482 66.7216 35.72 66.8315 35.5556C66.9414 35.3911 67 35.1978 67 35C67 34.7348 66.8946 34.4804 66.7071 34.2929C66.5196 34.1054 66.2652 34 66 34ZM67 47.5H65C64.7348 47.5 64.4804 47.3946 64.2929 47.2071C64.1054 47.0196 64 46.7652 64 46.5V43H65V46.5H67V42H68V39C68 38.8674 67.9473 38.7402 67.8536 38.6464C67.7598 38.5527 67.6326 38.5 67.5 38.5H64.29L62 42.5L59.71 38.5H56.5C56.3674 38.5 56.2402 38.5527 56.1464 38.6464C56.0527 38.7402 56 38.8674 56 39V42H57V46.5H59V43H60V46.5C60 46.7652 59.8946 47.0196 59.7071 47.2071C59.5196 47.3946 59.2652 47.5 59 47.5H57C56.7348 47.5 56.4804 47.3946 56.2929 47.2071C56.1054 47.0196 56 46.7652 56 46.5V43C55.7348 43 55.4804 42.8946 55.2929 42.7071C55.1054 42.5196 55 42.2652 55 42V39C55 38.6022 55.158 38.2206 55.4393 37.9393C55.7206 37.658 56.1022 37.5 56.5 37.5H60.29L62 40.5L63.71 37.5H67.5C67.8978 37.5 68.2794 37.658 68.5607 37.9393C68.842 38.2206 69 38.6022 69 39V42C69 42.2652 68.8946 42.5196 68.7071 42.7071C68.5196 42.8946 68.2652 43 68 43V46.5C68 46.7652 67.8946 47.0196 67.7071 47.2071C67.5196 47.3946 67.2652 47.5 67 47.5Z" fill="white"/>
<defs>
<filter id="filter0_d_197_1101" x="0" y="19" width="198" height="50" filterUnits="userSpaceOnUse" color-interpolation-filters="sRGB">
<feFlood flood-opacity="0" result="BackgroundImageFix"/>
<feColorMatrix in="SourceAlpha" type="matrix" values="0 0 0 0 0 0 0 0 0 0 0 0 0 0 0 0 0 0 127 0" result="hardAlpha"/>
<feOffset dy="4"/>
<feGaussianBlur stdDeviation="2"/>
<feComposite in2="hardAlpha" operator="out"/>
<feColorMatrix type="matrix" values="0 0 0 0 0.0432692 0 0 0 0 0.0432692 0 0 0 0 0.0432692 0 0 0 0.18 0"/>
<feBlend mode="normal" in2="BackgroundImageFix" result="effect1_dropShadow_197_1101"/>
<feBlend mode="normal" in="SourceGraphic" in2="effect1_dropShadow_197_1101" result="shape"/>
</filter>
</defs>
</svg>
