<svg width="198" height="80" viewBox="0 0 198 80" fill="none" xmlns="http://www.w3.org/2000/svg">
<g filter="url(#filter0_d_197_1061)">
<mask id="path-1-inside-1_197_1061" fill="white">
<path d="M4 23C4 25.2091 5.79086 27 8 27H11.5996C15.7968 27 19.1992 30.4025 19.1992 34.5996V42.4004C19.1992 46.5975 15.7968 50 11.5996 50H9.5C6.46243 50 4 52.4624 4 55.5C4 58.5376 6.46243 61 9.5 61H182C188.627 61 194 55.6274 194 49V31C194 24.3726 188.627 19 182 19H8C5.79086 19 4 20.7909 4 23Z"/>
</mask>
<path d="M4 23C4 25.2091 5.79086 27 8 27H11.5996C15.7968 27 19.1992 30.4025 19.1992 34.5996V42.4004C19.1992 46.5975 15.7968 50 11.5996 50H9.5C6.46243 50 4 52.4624 4 55.5C4 58.5376 6.46243 61 9.5 61H182C188.627 61 194 55.6274 194 49V31C194 24.3726 188.627 19 182 19H8C5.79086 19 4 20.7909 4 23Z" fill="#FF6644"/>
<path d="M8 27V26H11.5996V27V28H8V27ZM19.1992 34.5996H20.1992V42.4004H19.1992H18.1992V34.5996H19.1992ZM11.5996 50V51H9.5V50V49H11.5996V50ZM9.5 61V60H182V61V62H9.5V61ZM194 49H193V31H194H195V49H194ZM182 19V20H8V19V18H182V19ZM8 19V20C6.34315 20 5 21.3431 5 23H4H3C3 20.2386 5.23859 18 8 18V19ZM194 31H193C193 24.9249 188.075 20 182 20V19V18C189.18 18 195 23.8203 195 31H194ZM182 61V60C188.075 60 193 55.0751 193 49H194H195C195 56.1797 189.18 62 182 62V61ZM4 55.5H5C5 57.9853 7.01472 60 9.5 60V61V62C5.91016 62 3 59.0899 3 55.5H4ZM9.5 50V51C7.01472 51 5 53.0147 5 55.5H4H3C3 51.9101 5.91016 49 9.5 49V50ZM19.1992 42.4004H20.1992C20.1992 47.1498 16.349 51 11.5996 51V50V49C15.2445 49 18.1992 46.0453 18.1992 42.4004H19.1992ZM11.5996 27V26C16.349 26 20.1992 29.8502 20.1992 34.5996H19.1992H18.1992C18.1992 30.9547 15.2445 28 11.5996 28V27ZM8 27V28C5.23857 28 3 25.7614 3 23H4H5C5 24.6569 6.34314 26 8 26V27Z" fill="#EDE9E9" fill-opacity="0.86" mask="url(#path-1-inside-1_197_1061)"/>
</g>
<path d="M113.704 34.848C114.92 34.848 115.971 35.0773 116.856 35.536C117.752 35.984 118.435 36.6293 118.904 37.472C119.384 38.3147 119.624 39.3067 119.624 40.448C119.624 41.5893 119.384 42.5813 118.904 43.424C118.435 44.256 117.752 44.896 116.856 45.344C115.971 45.7813 114.92 46 113.704 46H110.232V34.848H113.704ZM113.704 44.8C115.144 44.8 116.243 44.4213 117 43.664C117.757 42.896 118.136 41.824 118.136 40.448C118.136 39.0613 117.752 37.9787 116.984 37.2C116.227 36.4213 115.133 36.032 113.704 36.032H111.688V44.8H113.704ZM129.545 41.28C129.545 41.5573 129.529 41.8507 129.497 42.16H122.489C122.542 43.024 122.835 43.7013 123.369 44.192C123.913 44.672 124.569 44.912 125.337 44.912C125.966 44.912 126.489 44.768 126.905 44.48C127.331 44.1813 127.63 43.7867 127.801 43.296H129.369C129.134 44.1387 128.665 44.8267 127.961 45.36C127.257 45.8827 126.382 46.144 125.337 46.144C124.505 46.144 123.758 45.9573 123.097 45.584C122.446 45.2107 121.934 44.6827 121.561 44C121.187 43.3067 121.001 42.5067 121.001 41.6C121.001 40.6933 121.182 39.8987 121.545 39.216C121.907 38.5333 122.414 38.0107 123.065 37.648C123.726 37.2747 124.483 37.088 125.337 37.088C126.169 37.088 126.905 37.2693 127.545 37.632C128.185 37.9947 128.675 38.496 129.017 39.136C129.369 39.7653 129.545 40.48 129.545 41.28ZM128.041 40.976C128.041 40.4213 127.918 39.9467 127.673 39.552C127.427 39.1467 127.091 38.8427 126.665 38.64C126.249 38.4267 125.785 38.32 125.273 38.32C124.537 38.32 123.907 38.5547 123.385 39.024C122.873 39.4933 122.579 40.144 122.505 40.976H128.041ZM134.57 46.144C133.898 46.144 133.296 46.032 132.762 45.808C132.229 45.5733 131.808 45.2533 131.498 44.848C131.189 44.432 131.018 43.9573 130.986 43.424H132.49C132.533 43.8613 132.736 44.2187 133.098 44.496C133.472 44.7733 133.957 44.912 134.554 44.912C135.109 44.912 135.546 44.7893 135.866 44.544C136.186 44.2987 136.346 43.9893 136.346 43.616C136.346 43.232 136.176 42.9493 135.834 42.768C135.493 42.576 134.965 42.3893 134.25 42.208C133.6 42.0373 133.066 41.8667 132.65 41.696C132.245 41.5147 131.893 41.2533 131.594 40.912C131.306 40.56 131.162 40.1013 131.162 39.536C131.162 39.088 131.296 38.6773 131.562 38.304C131.829 37.9307 132.208 37.6373 132.698 37.424C133.189 37.2 133.749 37.088 134.378 37.088C135.349 37.088 136.133 37.3333 136.73 37.824C137.328 38.3147 137.648 38.9867 137.69 39.84H136.234C136.202 39.3813 136.016 39.0133 135.674 38.736C135.344 38.4587 134.896 38.32 134.33 38.32C133.808 38.32 133.392 38.432 133.082 38.656C132.773 38.88 132.618 39.1733 132.618 39.536C132.618 39.824 132.709 40.064 132.89 40.256C133.082 40.4373 133.317 40.5867 133.594 40.704C133.882 40.8107 134.277 40.9333 134.778 41.072C135.408 41.2427 135.92 41.4133 136.314 41.584C136.709 41.744 137.045 41.9893 137.322 42.32C137.61 42.6507 137.76 43.0827 137.77 43.616C137.77 44.096 137.637 44.528 137.37 44.912C137.104 45.296 136.725 45.6 136.234 45.824C135.754 46.0373 135.2 46.144 134.57 46.144ZM140.578 35.808C140.3 35.808 140.066 35.712 139.874 35.52C139.682 35.328 139.586 35.0933 139.586 34.816C139.586 34.5387 139.682 34.304 139.874 34.112C140.066 33.92 140.3 33.824 140.578 33.824C140.844 33.824 141.068 33.92 141.25 34.112C141.442 34.304 141.538 34.5387 141.538 34.816C141.538 35.0933 141.442 35.328 141.25 35.52C141.068 35.712 140.844 35.808 140.578 35.808ZM141.282 37.232V46H139.826V37.232H141.282ZM147.379 37.088C148.137 37.088 148.798 37.2533 149.363 37.584C149.939 37.9147 150.366 38.3307 150.643 38.832V37.232H152.115V46.192C152.115 46.992 151.945 47.7013 151.603 48.32C151.262 48.9493 150.771 49.44 150.131 49.792C149.502 50.144 148.766 50.32 147.923 50.32C146.771 50.32 145.811 50.048 145.043 49.504C144.275 48.96 143.822 48.2187 143.683 47.28H145.123C145.283 47.8133 145.614 48.24 146.115 48.56C146.617 48.8907 147.219 49.056 147.923 49.056C148.723 49.056 149.374 48.8053 149.875 48.304C150.387 47.8027 150.643 47.0987 150.643 46.192V44.352C150.355 44.864 149.929 45.2907 149.363 45.632C148.798 45.9733 148.137 46.144 147.379 46.144C146.601 46.144 145.891 45.952 145.251 45.568C144.622 45.184 144.126 44.6453 143.763 43.952C143.401 43.2587 143.219 42.4693 143.219 41.584C143.219 40.688 143.401 39.904 143.763 39.232C144.126 38.5493 144.622 38.0213 145.251 37.648C145.891 37.2747 146.601 37.088 147.379 37.088ZM150.643 41.6C150.643 40.9387 150.51 40.3627 150.243 39.872C149.977 39.3813 149.614 39.008 149.155 38.752C148.707 38.4853 148.211 38.352 147.667 38.352C147.123 38.352 146.627 38.48 146.179 38.736C145.731 38.992 145.374 39.3653 145.107 39.856C144.841 40.3467 144.707 40.9227 144.707 41.584C144.707 42.256 144.841 42.8427 145.107 43.344C145.374 43.8347 145.731 44.2133 146.179 44.48C146.627 44.736 147.123 44.864 147.667 44.864C148.211 44.864 148.707 44.736 149.155 44.48C149.614 44.2133 149.977 43.8347 150.243 43.344C150.51 42.8427 150.643 42.2613 150.643 41.6ZM158.848 37.072C159.914 37.072 160.778 37.3973 161.44 38.048C162.101 38.688 162.432 39.616 162.432 40.832V46H160.992V41.04C160.992 40.1653 160.773 39.4987 160.336 39.04C159.898 38.5707 159.301 38.336 158.544 38.336C157.776 38.336 157.162 38.576 156.704 39.056C156.256 39.536 156.032 40.2347 156.032 41.152V46H154.576V37.232H156.032V38.48C156.32 38.032 156.709 37.6853 157.2 37.44C157.701 37.1947 158.25 37.072 158.848 37.072Z" fill="white"/>
<defs>
<filter id="filter0_d_197_1061" x="0" y="19" width="198" height="50" filterUnits="userSpaceOnUse" color-interpolation-filters="sRGB">
<feFlood flood-opacity="0" result="BackgroundImageFix"/>
<feColorMatrix in="SourceAlpha" type="matrix" values="0 0 0 0 0 0 0 0 0 0 0 0 0 0 0 0 0 0 127 0" result="hardAlpha"/>
<feOffset dy="4"/>
<feGaussianBlur stdDeviation="2"/>
<feComposite in2="hardAlpha" operator="out"/>
<feColorMatrix type="matrix" values="0 0 0 0 0 0 0 0 0 0 0 0 0 0 0 0 0 0 0.11 0"/>
<feBlend mode="normal" in2="BackgroundImageFix" result="effect1_dropShadow_197_1061"/>
<feBlend mode="normal" in="SourceGraphic" in2="effect1_dropShadow_197_1061" result="shape"/>
</filter>
</defs>
</svg>
