<svg width="200" height="80" viewBox="0 0 200 80" fill="none" xmlns="http://www.w3.org/2000/svg">
<g filter="url(#filter0_d_197_1088)">
<mask id="path-1-inside-1_197_1088" fill="white">
<path d="M4 23C4 25.2091 5.79086 27 8 27H11.6797C15.9211 27 19.3594 30.4383 19.3594 34.6797V42.3203C19.3594 46.5617 15.9211 50 11.6797 50H9.5C6.46243 50 4 52.4624 4 55.5C4 58.5376 6.46243 61 9.5 61H184C190.627 61 196 55.6274 196 49V31C196 24.3726 190.627 19 184 19H8C5.79086 19 4 20.7909 4 23Z"/>
</mask>
<path d="M4 23C4 25.2091 5.79086 27 8 27H11.6797C15.9211 27 19.3594 30.4383 19.3594 34.6797V42.3203C19.3594 46.5617 15.9211 50 11.6797 50H9.5C6.46243 50 4 52.4624 4 55.5C4 58.5376 6.46243 61 9.5 61H184C190.627 61 196 55.6274 196 49V31C196 24.3726 190.627 19 184 19H8C5.79086 19 4 20.7909 4 23Z" fill="#F87100"/>
<path d="M8 27V26H11.6797V27V28H8V27ZM19.3594 34.6797H20.3594V42.3203H19.3594H18.3594V34.6797H19.3594ZM11.6797 50V51H9.5V50V49H11.6797V50ZM9.5 61V60H184V61V62H9.5V61ZM196 49H195V31H196H197V49H196ZM184 19V20H8V19V18H184V19ZM8 19V20C6.34314 20 5 21.3431 5 23H4H3C3 20.2386 5.23857 18 8 18V19ZM196 31H195C195 24.9249 190.075 20 184 20V19V18C191.18 18 197 23.8203 197 31H196ZM184 61V60C190.075 60 195 55.0751 195 49H196H197C197 56.1797 191.18 62 184 62V61ZM4 55.5H5C5 57.9853 7.01472 60 9.5 60V61V62C5.91016 62 3 59.0899 3 55.5H4ZM9.5 50V51C7.01472 51 5 53.0147 5 55.5H4H3C3 51.9101 5.91016 49 9.5 49V50ZM19.3594 42.3203H20.3594C20.3594 47.114 16.4733 51 11.6797 51V50V49C15.3688 49 18.3594 46.0094 18.3594 42.3203H19.3594ZM11.6797 27V26C16.4733 26 20.3594 29.886 20.3594 34.6797H19.3594H18.3594C18.3594 30.9906 15.3688 28 11.6797 28V27ZM8 27V28C5.23857 28 3 25.7614 3 23H4H5C5 24.6569 6.34314 26 8 26V27Z" fill="#ECECEC" fill-opacity="0.86" mask="url(#path-1-inside-1_197_1088)"/>
</g>
<path d="M106.704 34.848C107.92 34.848 108.971 35.0773 109.856 35.536C110.752 35.984 111.435 36.6293 111.904 37.472C112.384 38.3147 112.624 39.3067 112.624 40.448C112.624 41.5893 112.384 42.5813 111.904 43.424C111.435 44.256 110.752 44.896 109.856 45.344C108.971 45.7813 107.92 46 106.704 46H103.232V34.848H106.704ZM106.704 44.8C108.144 44.8 109.243 44.4213 110 43.664C110.757 42.896 111.136 41.824 111.136 40.448C111.136 39.0613 110.752 37.9787 109.984 37.2C109.227 36.4213 108.133 36.032 106.704 36.032H104.688V44.8H106.704ZM115.297 35.808C115.019 35.808 114.785 35.712 114.593 35.52C114.401 35.328 114.305 35.0933 114.305 34.816C114.305 34.5387 114.401 34.304 114.593 34.112C114.785 33.92 115.019 33.824 115.297 33.824C115.563 33.824 115.787 33.92 115.969 34.112C116.161 34.304 116.257 34.5387 116.257 34.816C116.257 35.0933 116.161 35.328 115.969 35.52C115.787 35.712 115.563 35.808 115.297 35.808ZM116.001 37.232V46H114.545V37.232H116.001ZM121.586 46.144C120.914 46.144 120.311 46.032 119.778 45.808C119.245 45.5733 118.823 45.2533 118.514 44.848C118.205 44.432 118.034 43.9573 118.002 43.424H119.506C119.549 43.8613 119.751 44.2187 120.114 44.496C120.487 44.7733 120.973 44.912 121.57 44.912C122.125 44.912 122.562 44.7893 122.882 44.544C123.202 44.2987 123.362 43.9893 123.362 43.616C123.362 43.232 123.191 42.9493 122.85 42.768C122.509 42.576 121.981 42.3893 121.266 42.208C120.615 42.0373 120.082 41.8667 119.666 41.696C119.261 41.5147 118.909 41.2533 118.61 40.912C118.322 40.56 118.178 40.1013 118.178 39.536C118.178 39.088 118.311 38.6773 118.578 38.304C118.845 37.9307 119.223 37.6373 119.714 37.424C120.205 37.2 120.765 37.088 121.394 37.088C122.365 37.088 123.149 37.3333 123.746 37.824C124.343 38.3147 124.663 38.9867 124.706 39.84H123.25C123.218 39.3813 123.031 39.0133 122.69 38.736C122.359 38.4587 121.911 38.32 121.346 38.32C120.823 38.32 120.407 38.432 120.098 38.656C119.789 38.88 119.634 39.1733 119.634 39.536C119.634 39.824 119.725 40.064 119.906 40.256C120.098 40.4373 120.333 40.5867 120.61 40.704C120.898 40.8107 121.293 40.9333 121.794 41.072C122.423 41.2427 122.935 41.4133 123.33 41.584C123.725 41.744 124.061 41.9893 124.338 42.32C124.626 42.6507 124.775 43.0827 124.786 43.616C124.786 44.096 124.653 44.528 124.386 44.912C124.119 45.296 123.741 45.6 123.25 45.824C122.77 46.0373 122.215 46.144 121.586 46.144ZM126.297 41.6C126.297 40.6933 126.479 39.904 126.841 39.232C127.204 38.5493 127.705 38.0213 128.345 37.648C128.996 37.2747 129.737 37.088 130.569 37.088C131.647 37.088 132.532 37.3493 133.225 37.872C133.929 38.3947 134.393 39.12 134.617 40.048H133.049C132.9 39.5147 132.607 39.0933 132.169 38.784C131.743 38.4747 131.209 38.32 130.569 38.32C129.737 38.32 129.065 38.608 128.553 39.184C128.041 39.7493 127.785 40.5547 127.785 41.6C127.785 42.656 128.041 43.472 128.553 44.048C129.065 44.624 129.737 44.912 130.569 44.912C131.209 44.912 131.743 44.7627 132.169 44.464C132.596 44.1653 132.889 43.7387 133.049 43.184H134.617C134.383 44.08 133.913 44.8 133.209 45.344C132.505 45.8773 131.625 46.144 130.569 46.144C129.737 46.144 128.996 45.9573 128.345 45.584C127.705 45.2107 127.204 44.6827 126.841 44C126.479 43.3173 126.297 42.5173 126.297 41.6ZM140.384 46.144C139.563 46.144 138.816 45.9573 138.144 45.584C137.483 45.2107 136.96 44.6827 136.576 44C136.203 43.3067 136.016 42.5067 136.016 41.6C136.016 40.704 136.208 39.9147 136.592 39.232C136.987 38.5387 137.52 38.0107 138.192 37.648C138.864 37.2747 139.616 37.088 140.448 37.088C141.28 37.088 142.032 37.2747 142.704 37.648C143.376 38.0107 143.904 38.5333 144.288 39.216C144.683 39.8987 144.88 40.6933 144.88 41.6C144.88 42.5067 144.677 43.3067 144.272 44C143.877 44.6827 143.339 45.2107 142.656 45.584C141.973 45.9573 141.216 46.144 140.384 46.144ZM140.384 44.864C140.907 44.864 141.397 44.7413 141.856 44.496C142.315 44.2507 142.683 43.8827 142.96 43.392C143.248 42.9013 143.392 42.304 143.392 41.6C143.392 40.896 143.253 40.2987 142.976 39.808C142.699 39.3173 142.336 38.9547 141.888 38.72C141.44 38.4747 140.955 38.352 140.432 38.352C139.899 38.352 139.408 38.4747 138.96 38.72C138.523 38.9547 138.171 39.3173 137.904 39.808C137.637 40.2987 137.504 40.896 137.504 41.6C137.504 42.3147 137.632 42.9173 137.888 43.408C138.155 43.8987 138.507 44.2667 138.944 44.512C139.381 44.7467 139.861 44.864 140.384 44.864ZM150.059 44.656L152.779 37.232H154.331L150.891 46H149.195L145.755 37.232H147.323L150.059 44.656ZM163.763 41.28C163.763 41.5573 163.747 41.8507 163.715 42.16H156.707C156.761 43.024 157.054 43.7013 157.587 44.192C158.131 44.672 158.787 44.912 159.555 44.912C160.185 44.912 160.707 44.768 161.123 44.48C161.55 44.1813 161.849 43.7867 162.019 43.296H163.587C163.353 44.1387 162.883 44.8267 162.179 45.36C161.475 45.8827 160.601 46.144 159.555 46.144C158.723 46.144 157.977 45.9573 157.315 45.584C156.665 45.2107 156.153 44.6827 155.779 44C155.406 43.3067 155.219 42.5067 155.219 41.6C155.219 40.6933 155.401 39.8987 155.763 39.216C156.126 38.5333 156.633 38.0107 157.283 37.648C157.945 37.2747 158.702 37.088 159.555 37.088C160.387 37.088 161.123 37.2693 161.763 37.632C162.403 37.9947 162.894 38.496 163.235 39.136C163.587 39.7653 163.763 40.48 163.763 41.28ZM162.259 40.976C162.259 40.4213 162.137 39.9467 161.891 39.552C161.646 39.1467 161.31 38.8427 160.883 38.64C160.467 38.4267 160.003 38.32 159.491 38.32C158.755 38.32 158.126 38.5547 157.603 39.024C157.091 39.4933 156.798 40.144 156.723 40.976H162.259ZM167.141 38.656C167.397 38.1547 167.76 37.7653 168.229 37.488C168.709 37.2107 169.29 37.072 169.973 37.072V38.576H169.589C167.957 38.576 167.141 39.4613 167.141 41.232V46H165.685V37.232H167.141V38.656Z" fill="white"/>
<path d="M69 47C69 48.1 67 49 67 49C67 49 65 48.1 65 47M67 37C66.6054 36.9899 66.2297 36.8286 65.9505 36.5495C65.6714 36.2703 65.5101 35.8946 65.5 35.5C65.5 35.1022 65.658 34.7206 65.9393 34.4393C66.2206 34.158 66.6022 34 67 34C67.3978 34 67.7794 34.158 68.0607 34.4393C68.342 34.7206 68.5 35.1022 68.5 35.5C68.4899 35.8946 68.3286 36.2703 68.0495 36.5495C67.7703 36.8286 67.3946 36.9899 67 37ZM70.3 41.7C71.1 37.9 69.7 31 67 31C64.3 31 62.8 37.7 63.6 41.5L62 45H64.7L65 46H69C69.2 45.7 69.1 45.5 69.3 45H72L70.3 41.7Z" fill="white"/>
<g filter="url(#filter1_d_197_1088)">
<mask id="path-5-inside-2_197_1088" fill="white">
<path d="M4 23C4 25.2091 5.79086 27 8 27H11.6797C15.9211 27 19.3594 30.4383 19.3594 34.6797V42.3203C19.3594 46.5617 15.9211 50 11.6797 50H9.5C6.46243 50 4 52.4624 4 55.5C4 58.5376 6.46243 61 9.5 61H184C190.627 61 196 55.6274 196 49V31C196 24.3726 190.627 19 184 19H8C5.79086 19 4 20.7909 4 23Z"/>
</mask>
<path d="M4 23C4 25.2091 5.79086 27 8 27H11.6797C15.9211 27 19.3594 30.4383 19.3594 34.6797V42.3203C19.3594 46.5617 15.9211 50 11.6797 50H9.5C6.46243 50 4 52.4624 4 55.5C4 58.5376 6.46243 61 9.5 61H184C190.627 61 196 55.6274 196 49V31C196 24.3726 190.627 19 184 19H8C5.79086 19 4 20.7909 4 23Z" fill="#F87100"/>
<path d="M8 27V26H11.6797V27V28H8V27ZM19.3594 34.6797H20.3594V42.3203H19.3594H18.3594V34.6797H19.3594ZM11.6797 50V51H9.5V50V49H11.6797V50ZM9.5 61V60H184V61V62H9.5V61ZM196 49H195V31H196H197V49H196ZM184 19V20H8V19V18H184V19ZM8 19V20C6.34314 20 5 21.3431 5 23H4H3C3 20.2386 5.23857 18 8 18V19ZM196 31H195C195 24.9249 190.075 20 184 20V19V18C191.18 18 197 23.8203 197 31H196ZM184 61V60C190.075 60 195 55.0751 195 49H196H197C197 56.1797 191.18 62 184 62V61ZM4 55.5H5C5 57.9853 7.01472 60 9.5 60V61V62C5.91016 62 3 59.0899 3 55.5H4ZM9.5 50V51C7.01472 51 5 53.0147 5 55.5H4H3C3 51.9101 5.91016 49 9.5 49V50ZM19.3594 42.3203H20.3594C20.3594 47.114 16.4733 51 11.6797 51V50V49C15.3688 49 18.3594 46.0094 18.3594 42.3203H19.3594ZM11.6797 27V26C16.4733 26 20.3594 29.886 20.3594 34.6797H19.3594H18.3594C18.3594 30.9906 15.3688 28 11.6797 28V27ZM8 27V28C5.23857 28 3 25.7614 3 23H4H5C5 24.6569 6.34314 26 8 26V27Z" fill="#ECECEC" fill-opacity="0.86" mask="url(#path-5-inside-2_197_1088)"/>
</g>
<path d="M106.704 34.848C107.92 34.848 108.971 35.0773 109.856 35.536C110.752 35.984 111.435 36.6293 111.904 37.472C112.384 38.3147 112.624 39.3067 112.624 40.448C112.624 41.5893 112.384 42.5813 111.904 43.424C111.435 44.256 110.752 44.896 109.856 45.344C108.971 45.7813 107.92 46 106.704 46H103.232V34.848H106.704ZM106.704 44.8C108.144 44.8 109.243 44.4213 110 43.664C110.757 42.896 111.136 41.824 111.136 40.448C111.136 39.0613 110.752 37.9787 109.984 37.2C109.227 36.4213 108.133 36.032 106.704 36.032H104.688V44.8H106.704ZM115.297 35.808C115.019 35.808 114.785 35.712 114.593 35.52C114.401 35.328 114.305 35.0933 114.305 34.816C114.305 34.5387 114.401 34.304 114.593 34.112C114.785 33.92 115.019 33.824 115.297 33.824C115.563 33.824 115.787 33.92 115.969 34.112C116.161 34.304 116.257 34.5387 116.257 34.816C116.257 35.0933 116.161 35.328 115.969 35.52C115.787 35.712 115.563 35.808 115.297 35.808ZM116.001 37.232V46H114.545V37.232H116.001ZM121.586 46.144C120.914 46.144 120.311 46.032 119.778 45.808C119.245 45.5733 118.823 45.2533 118.514 44.848C118.205 44.432 118.034 43.9573 118.002 43.424H119.506C119.549 43.8613 119.751 44.2187 120.114 44.496C120.487 44.7733 120.973 44.912 121.57 44.912C122.125 44.912 122.562 44.7893 122.882 44.544C123.202 44.2987 123.362 43.9893 123.362 43.616C123.362 43.232 123.191 42.9493 122.85 42.768C122.509 42.576 121.981 42.3893 121.266 42.208C120.615 42.0373 120.082 41.8667 119.666 41.696C119.261 41.5147 118.909 41.2533 118.61 40.912C118.322 40.56 118.178 40.1013 118.178 39.536C118.178 39.088 118.311 38.6773 118.578 38.304C118.845 37.9307 119.223 37.6373 119.714 37.424C120.205 37.2 120.765 37.088 121.394 37.088C122.365 37.088 123.149 37.3333 123.746 37.824C124.343 38.3147 124.663 38.9867 124.706 39.84H123.25C123.218 39.3813 123.031 39.0133 122.69 38.736C122.359 38.4587 121.911 38.32 121.346 38.32C120.823 38.32 120.407 38.432 120.098 38.656C119.789 38.88 119.634 39.1733 119.634 39.536C119.634 39.824 119.725 40.064 119.906 40.256C120.098 40.4373 120.333 40.5867 120.61 40.704C120.898 40.8107 121.293 40.9333 121.794 41.072C122.423 41.2427 122.935 41.4133 123.33 41.584C123.725 41.744 124.061 41.9893 124.338 42.32C124.626 42.6507 124.775 43.0827 124.786 43.616C124.786 44.096 124.653 44.528 124.386 44.912C124.119 45.296 123.741 45.6 123.25 45.824C122.77 46.0373 122.215 46.144 121.586 46.144ZM126.297 41.6C126.297 40.6933 126.479 39.904 126.841 39.232C127.204 38.5493 127.705 38.0213 128.345 37.648C128.996 37.2747 129.737 37.088 130.569 37.088C131.647 37.088 132.532 37.3493 133.225 37.872C133.929 38.3947 134.393 39.12 134.617 40.048H133.049C132.9 39.5147 132.607 39.0933 132.169 38.784C131.743 38.4747 131.209 38.32 130.569 38.32C129.737 38.32 129.065 38.608 128.553 39.184C128.041 39.7493 127.785 40.5547 127.785 41.6C127.785 42.656 128.041 43.472 128.553 44.048C129.065 44.624 129.737 44.912 130.569 44.912C131.209 44.912 131.743 44.7627 132.169 44.464C132.596 44.1653 132.889 43.7387 133.049 43.184H134.617C134.383 44.08 133.913 44.8 133.209 45.344C132.505 45.8773 131.625 46.144 130.569 46.144C129.737 46.144 128.996 45.9573 128.345 45.584C127.705 45.2107 127.204 44.6827 126.841 44C126.479 43.3173 126.297 42.5173 126.297 41.6ZM140.384 46.144C139.563 46.144 138.816 45.9573 138.144 45.584C137.483 45.2107 136.96 44.6827 136.576 44C136.203 43.3067 136.016 42.5067 136.016 41.6C136.016 40.704 136.208 39.9147 136.592 39.232C136.987 38.5387 137.52 38.0107 138.192 37.648C138.864 37.2747 139.616 37.088 140.448 37.088C141.28 37.088 142.032 37.2747 142.704 37.648C143.376 38.0107 143.904 38.5333 144.288 39.216C144.683 39.8987 144.88 40.6933 144.88 41.6C144.88 42.5067 144.677 43.3067 144.272 44C143.877 44.6827 143.339 45.2107 142.656 45.584C141.973 45.9573 141.216 46.144 140.384 46.144ZM140.384 44.864C140.907 44.864 141.397 44.7413 141.856 44.496C142.315 44.2507 142.683 43.8827 142.96 43.392C143.248 42.9013 143.392 42.304 143.392 41.6C143.392 40.896 143.253 40.2987 142.976 39.808C142.699 39.3173 142.336 38.9547 141.888 38.72C141.44 38.4747 140.955 38.352 140.432 38.352C139.899 38.352 139.408 38.4747 138.96 38.72C138.523 38.9547 138.171 39.3173 137.904 39.808C137.637 40.2987 137.504 40.896 137.504 41.6C137.504 42.3147 137.632 42.9173 137.888 43.408C138.155 43.8987 138.507 44.2667 138.944 44.512C139.381 44.7467 139.861 44.864 140.384 44.864ZM150.059 44.656L152.779 37.232H154.331L150.891 46H149.195L145.755 37.232H147.323L150.059 44.656ZM163.763 41.28C163.763 41.5573 163.747 41.8507 163.715 42.16H156.707C156.761 43.024 157.054 43.7013 157.587 44.192C158.131 44.672 158.787 44.912 159.555 44.912C160.185 44.912 160.707 44.768 161.123 44.48C161.55 44.1813 161.849 43.7867 162.019 43.296H163.587C163.353 44.1387 162.883 44.8267 162.179 45.36C161.475 45.8827 160.601 46.144 159.555 46.144C158.723 46.144 157.977 45.9573 157.315 45.584C156.665 45.2107 156.153 44.6827 155.779 44C155.406 43.3067 155.219 42.5067 155.219 41.6C155.219 40.6933 155.401 39.8987 155.763 39.216C156.126 38.5333 156.633 38.0107 157.283 37.648C157.945 37.2747 158.702 37.088 159.555 37.088C160.387 37.088 161.123 37.2693 161.763 37.632C162.403 37.9947 162.894 38.496 163.235 39.136C163.587 39.7653 163.763 40.48 163.763 41.28ZM162.259 40.976C162.259 40.4213 162.137 39.9467 161.891 39.552C161.646 39.1467 161.31 38.8427 160.883 38.64C160.467 38.4267 160.003 38.32 159.491 38.32C158.755 38.32 158.126 38.5547 157.603 39.024C157.091 39.4933 156.798 40.144 156.723 40.976H162.259ZM167.141 38.656C167.397 38.1547 167.76 37.7653 168.229 37.488C168.709 37.2107 169.29 37.072 169.973 37.072V38.576H169.589C167.957 38.576 167.141 39.4613 167.141 41.232V46H165.685V37.232H167.141V38.656Z" fill="white"/>
<path d="M69 47C69 48.1 67 49 67 49C67 49 65 48.1 65 47M67 37C66.6054 36.9899 66.2297 36.8286 65.9505 36.5495C65.6714 36.2703 65.5101 35.8946 65.5 35.5C65.5 35.1022 65.658 34.7206 65.9393 34.4393C66.2206 34.158 66.6022 34 67 34C67.3978 34 67.7794 34.158 68.0607 34.4393C68.342 34.7206 68.5 35.1022 68.5 35.5C68.4899 35.8946 68.3286 36.2703 68.0495 36.5495C67.7703 36.8286 67.3946 36.9899 67 37ZM70.3 41.7C71.1 37.9 69.7 31 67 31C64.3 31 62.8 37.7 63.6 41.5L62 45H64.7L65 46H69C69.2 45.7 69.1 45.5 69.3 45H72L70.3 41.7Z" fill="white"/>
<defs>
<filter id="filter0_d_197_1088" x="0" y="19" width="200" height="50" filterUnits="userSpaceOnUse" color-interpolation-filters="sRGB">
<feFlood flood-opacity="0" result="BackgroundImageFix"/>
<feColorMatrix in="SourceAlpha" type="matrix" values="0 0 0 0 0 0 0 0 0 0 0 0 0 0 0 0 0 0 127 0" result="hardAlpha"/>
<feOffset dy="4"/>
<feGaussianBlur stdDeviation="2"/>
<feComposite in2="hardAlpha" operator="out"/>
<feColorMatrix type="matrix" values="0 0 0 0 0 0 0 0 0 0 0 0 0 0 0 0 0 0 0.2 0"/>
<feBlend mode="normal" in2="BackgroundImageFix" result="effect1_dropShadow_197_1088"/>
<feBlend mode="normal" in="SourceGraphic" in2="effect1_dropShadow_197_1088" result="shape"/>
</filter>
<filter id="filter1_d_197_1088" x="0" y="19" width="200" height="50" filterUnits="userSpaceOnUse" color-interpolation-filters="sRGB">
<feFlood flood-opacity="0" result="BackgroundImageFix"/>
<feColorMatrix in="SourceAlpha" type="matrix" values="0 0 0 0 0 0 0 0 0 0 0 0 0 0 0 0 0 0 127 0" result="hardAlpha"/>
<feOffset dy="4"/>
<feGaussianBlur stdDeviation="2"/>
<feComposite in2="hardAlpha" operator="out"/>
<feColorMatrix type="matrix" values="0 0 0 0 0 0 0 0 0 0 0 0 0 0 0 0 0 0 0.2 0"/>
<feBlend mode="normal" in2="BackgroundImageFix" result="effect1_dropShadow_197_1088"/>
<feBlend mode="normal" in="SourceGraphic" in2="effect1_dropShadow_197_1088" result="shape"/>
</filter>
</defs>
</svg>
