<svg width="56" height="56" viewBox="0 0 56 56" fill="none" xmlns="http://www.w3.org/2000/svg">
<g filter="url(#filter0_d_82_660)">
<circle cx="28" cy="24" r="16" fill="white"/>
</g>
<path d="M34.9996 27.4817V29.5893C35.0004 29.7849 34.9602 29.9786 34.8817 30.1578C34.8031 30.3371 34.6879 30.498 34.5435 30.6303C34.399 30.7626 34.2285 30.8633 34.0428 30.9259C33.8571 30.9886 33.6603 31.0119 33.465 30.9943C31.299 30.7594 29.2183 30.0207 27.3902 28.8376C25.6895 27.7589 24.2475 26.3198 23.1667 24.6224C21.9771 22.7897 21.2368 20.7031 21.0057 18.5316C20.9881 18.3373 21.0113 18.1415 21.0736 17.9566C21.136 17.7718 21.2363 17.6019 21.3681 17.4578C21.4998 17.3138 21.6602 17.1987 21.839 17.1199C22.0178 17.041 22.2111 17.0003 22.4065 17.0001H24.5183C24.8599 16.9967 25.1911 17.1174 25.4501 17.3398C25.7091 17.5621 25.8783 17.8708 25.9261 18.2084C26.0152 18.8829 26.1805 19.5451 26.4188 20.1825C26.5135 20.4339 26.534 20.7072 26.4779 20.9699C26.4218 21.2327 26.2913 21.4738 26.1021 21.6648L25.2081 22.557C26.2102 24.3158 27.6693 25.7721 29.4316 26.7721L30.3256 25.8799C30.517 25.6911 30.7586 25.5609 31.0218 25.5049C31.2851 25.4488 31.5589 25.4693 31.8108 25.5638C32.4495 25.8016 33.113 25.9666 33.7888 26.0556C34.1308 26.1037 34.4431 26.2756 34.6663 26.5386C34.8895 26.8015 35.0081 27.1372 34.9996 27.4817Z" stroke="black" stroke-linecap="round" stroke-linejoin="round"/>
<defs>
<filter id="filter0_d_82_660" x="0" y="0" width="56" height="56" filterUnits="userSpaceOnUse" color-interpolation-filters="sRGB">
<feFlood flood-opacity="0" result="BackgroundImageFix"/>
<feColorMatrix in="SourceAlpha" type="matrix" values="0 0 0 0 0 0 0 0 0 0 0 0 0 0 0 0 0 0 127 0" result="hardAlpha"/>
<feOffset dy="4"/>
<feGaussianBlur stdDeviation="6"/>
<feComposite in2="hardAlpha" operator="out"/>
<feColorMatrix type="matrix" values="0 0 0 0 0.850962 0 0 0 0 0.833779 0 0 0 0 0.833779 0 0 0 0.72 0"/>
<feBlend mode="normal" in2="BackgroundImageFix" result="effect1_dropShadow_82_660"/>
<feBlend mode="normal" in="SourceGraphic" in2="effect1_dropShadow_82_660" result="shape"/>
</filter>
</defs>
</svg>
