<svg width="200" height="80" viewBox="0 0 200 80" fill="none" xmlns="http://www.w3.org/2000/svg">
<g filter="url(#filter0_d_197_1068)">
<mask id="path-1-inside-1_197_1068" fill="white">
<path d="M4 24C4 26.2091 5.79086 28 8 28H11.6797C15.9211 28 19.3594 31.4383 19.3594 35.6797V43.3203C19.3594 47.5617 15.9211 51 11.6797 51H9.5C6.46243 51 4 53.4624 4 56.5C4 59.5376 6.46243 62 9.5 62H184C190.627 62 196 56.6274 196 50V32C196 25.3726 190.627 20 184 20H8C5.79086 20 4 21.7909 4 24Z"/>
</mask>
<path d="M4 24C4 26.2091 5.79086 28 8 28H11.6797C15.9211 28 19.3594 31.4383 19.3594 35.6797V43.3203C19.3594 47.5617 15.9211 51 11.6797 51H9.5C6.46243 51 4 53.4624 4 56.5C4 59.5376 6.46243 62 9.5 62H184C190.627 62 196 56.6274 196 50V32C196 25.3726 190.627 20 184 20H8C5.79086 20 4 21.7909 4 24Z" fill="#EAAA00"/>
<path d="M8 28V27H11.6797V28V29H8V28ZM19.3594 35.6797H20.3594V43.3203H19.3594H18.3594V35.6797H19.3594ZM11.6797 51V52H9.5V51V50H11.6797V51ZM9.5 62V61H184V62V63H9.5V62ZM196 50H195V32H196H197V50H196ZM184 20V21H8V20V19H184V20ZM8 20V21C6.34314 21 5 22.3431 5 24H4H3C3 21.2386 5.23857 19 8 19V20ZM196 32H195C195 25.9249 190.075 21 184 21V20V19C191.18 19 197 24.8203 197 32H196ZM184 62V61C190.075 61 195 56.0751 195 50H196H197C197 57.1797 191.18 63 184 63V62ZM4 56.5H5C5 58.9853 7.01472 61 9.5 61V62V63C5.91016 63 3 60.0899 3 56.5H4ZM9.5 51V52C7.01472 52 5 54.0147 5 56.5H4H3C3 52.9101 5.91016 50 9.5 50V51ZM19.3594 43.3203H20.3594C20.3594 48.114 16.4733 52 11.6797 52V51V50C15.3688 50 18.3594 47.0094 18.3594 43.3203H19.3594ZM11.6797 28V27C16.4733 27 20.3594 30.886 20.3594 35.6797H19.3594H18.3594C18.3594 31.9906 15.3688 29 11.6797 29V28ZM8 28V29C5.23857 29 3 26.7614 3 24H4H5C5 25.6569 6.34314 27 8 27V28Z" fill="#D9D9D5" mask="url(#path-1-inside-1_197_1068)"/>
</g>
<path d="M107.688 44.816H111.592V46H106.232V34.848H107.688V44.816ZM112.594 41.584C112.594 40.688 112.776 39.904 113.138 39.232C113.501 38.5493 113.997 38.0213 114.626 37.648C115.266 37.2747 115.976 37.088 116.754 37.088C117.522 37.088 118.189 37.2533 118.754 37.584C119.32 37.9147 119.741 38.3307 120.018 38.832V37.232H121.49V46H120.018V44.368C119.73 44.88 119.298 45.3067 118.722 45.648C118.157 45.9787 117.496 46.144 116.738 46.144C115.96 46.144 115.256 45.952 114.626 45.568C113.997 45.184 113.501 44.6453 113.138 43.952C112.776 43.2587 112.594 42.4693 112.594 41.584ZM120.018 41.6C120.018 40.9387 119.885 40.3627 119.618 39.872C119.352 39.3813 118.989 39.008 118.53 38.752C118.082 38.4853 117.586 38.352 117.042 38.352C116.498 38.352 116.002 38.48 115.554 38.736C115.106 38.992 114.749 39.3653 114.482 39.856C114.216 40.3467 114.082 40.9227 114.082 41.584C114.082 42.256 114.216 42.8427 114.482 43.344C114.749 43.8347 115.106 44.2133 115.554 44.48C116.002 44.736 116.498 44.864 117.042 44.864C117.586 44.864 118.082 44.736 118.53 44.48C118.989 44.2133 119.352 43.8347 119.618 43.344C119.885 42.8427 120.018 42.2613 120.018 41.6ZM131.727 37.232V46H130.271V44.704C129.993 45.152 129.604 45.504 129.103 45.76C128.612 46.0053 128.068 46.128 127.471 46.128C126.788 46.128 126.175 45.9893 125.631 45.712C125.087 45.424 124.655 44.9973 124.335 44.432C124.025 43.8667 123.871 43.1787 123.871 42.368V37.232H125.311V42.176C125.311 43.04 125.529 43.7067 125.967 44.176C126.404 44.6347 127.001 44.864 127.759 44.864C128.537 44.864 129.151 44.624 129.599 44.144C130.047 43.664 130.271 42.9653 130.271 42.048V37.232H131.727ZM138.457 37.072C139.524 37.072 140.388 37.3973 141.049 38.048C141.71 38.688 142.041 39.616 142.041 40.832V46H140.601V41.04C140.601 40.1653 140.382 39.4987 139.945 39.04C139.508 38.5707 138.91 38.336 138.153 38.336C137.385 38.336 136.772 38.576 136.313 39.056C135.865 39.536 135.641 40.2347 135.641 41.152V46H134.185V37.232H135.641V38.48C135.929 38.032 136.318 37.6853 136.809 37.44C137.31 37.1947 137.86 37.072 138.457 37.072ZM143.876 41.6C143.876 40.6933 144.057 39.904 144.42 39.232C144.782 38.5493 145.284 38.0213 145.924 37.648C146.574 37.2747 147.316 37.088 148.148 37.088C149.225 37.088 150.11 37.3493 150.804 37.872C151.508 38.3947 151.972 39.12 152.196 40.048H150.628C150.478 39.5147 150.185 39.0933 149.748 38.784C149.321 38.4747 148.788 38.32 148.148 38.32C147.316 38.32 146.644 38.608 146.132 39.184C145.62 39.7493 145.364 40.5547 145.364 41.6C145.364 42.656 145.62 43.472 146.132 44.048C146.644 44.624 147.316 44.912 148.148 44.912C148.788 44.912 149.321 44.7627 149.748 44.464C150.174 44.1653 150.468 43.7387 150.628 43.184H152.196C151.961 44.08 151.492 44.8 150.788 45.344C150.084 45.8773 149.204 46.144 148.148 46.144C147.316 46.144 146.574 45.9573 145.924 45.584C145.284 45.2107 144.782 44.6827 144.42 44C144.057 43.3173 143.876 42.5173 143.876 41.6ZM158.49 37.072C159.152 37.072 159.749 37.216 160.282 37.504C160.816 37.7813 161.232 38.2027 161.53 38.768C161.84 39.3333 161.994 40.0213 161.994 40.832V46H160.554V41.04C160.554 40.1653 160.336 39.4987 159.898 39.04C159.461 38.5707 158.864 38.336 158.106 38.336C157.338 38.336 156.725 38.576 156.266 39.056C155.818 39.536 155.594 40.2347 155.594 41.152V46H154.138V34.16H155.594V38.48C155.882 38.032 156.277 37.6853 156.778 37.44C157.29 37.1947 157.861 37.072 158.49 37.072Z" fill="white"/>
<path d="M60.5 45C61.6 45 62.5 44.1 62.5 43V32C62.5 30.9 61.6 30 60.5 30H50C50.3 30.6 50.5 31.3 50.5 32H60.5V43H51.5V45M55.5 35V37H49.5V50H47.5V44H45.5V50H43.5V42H42V37C42 35.9 42.9 35 44 35H55.5ZM48.5 32C48.5 33.1 47.6 34 46.5 34C45.4 34 44.5 33.1 44.5 32C44.5 30.9 45.4 30 46.5 30C47.6 30 48.5 30.9 48.5 32ZM57.5 34H59.5V42H57.5V34ZM54.5 38H56.5V42H54.5V38ZM51.5 38H53.5V42H51.5V38Z" fill="white"/>
<defs>
<filter id="filter0_d_197_1068" x="0" y="20" width="200" height="50" filterUnits="userSpaceOnUse" color-interpolation-filters="sRGB">
<feFlood flood-opacity="0" result="BackgroundImageFix"/>
<feColorMatrix in="SourceAlpha" type="matrix" values="0 0 0 0 0 0 0 0 0 0 0 0 0 0 0 0 0 0 127 0" result="hardAlpha"/>
<feOffset dy="4"/>
<feGaussianBlur stdDeviation="2"/>
<feComposite in2="hardAlpha" operator="out"/>
<feColorMatrix type="matrix" values="0 0 0 0 0 0 0 0 0 0 0 0 0 0 0 0 0 0 0.2 0"/>
<feBlend mode="normal" in2="BackgroundImageFix" result="effect1_dropShadow_197_1068"/>
<feBlend mode="normal" in="SourceGraphic" in2="effect1_dropShadow_197_1068" result="shape"/>
</filter>
</defs>
</svg>
