<svg width="208" height="80" viewBox="0 0 208 80" fill="none" xmlns="http://www.w3.org/2000/svg">
<rect x="151.5" y="28.5" width="23" height="23" stroke="white"/>
<g filter="url(#filter0_d_197_1051)">
<mask id="path-2-inside-1_197_1051" fill="white">
<path d="M200 23C200 25.2091 198.209 27 196 27H192.32C188.079 27 184.641 30.4383 184.641 34.6797V42.3203C184.641 46.5617 188.079 50 192.32 50H194.5C197.538 50 200 52.4624 200 55.5C200 58.5376 197.538 61 194.5 61H20C13.3726 61 8 55.6274 8 49V31C8 24.3726 13.3726 19 20 19H196C198.209 19 200 20.7909 200 23Z"/>
</mask>
<path d="M200 23C200 25.2091 198.209 27 196 27H192.32C188.079 27 184.641 30.4383 184.641 34.6797V42.3203C184.641 46.5617 188.079 50 192.32 50H194.5C197.538 50 200 52.4624 200 55.5C200 58.5376 197.538 61 194.5 61H20C13.3726 61 8 55.6274 8 49V31C8 24.3726 13.3726 19 20 19H196C198.209 19 200 20.7909 200 23Z" fill="#31AA52"/>
<path d="M196 27V26H192.32V27V28H196V27ZM184.641 34.6797H183.641V42.3203H184.641H185.641V34.6797H184.641ZM192.32 50V51H194.5V50V49H192.32V50ZM194.5 61V60H20V61V62H194.5V61ZM8 49H9V31H8H7V49H8ZM20 19V20H196V19V18H20V19ZM196 19V20C197.657 20 199 21.3431 199 23H200H201C201 20.2386 198.761 18 196 18V19ZM8 31H9C9 24.9249 13.9249 20 20 20V19V18C12.8203 18 7 23.8203 7 31H8ZM20 61V60C13.9249 60 9 55.0751 9 49H8H7C7 56.1797 12.8203 62 20 62V61ZM200 55.5H199C199 57.9853 196.985 60 194.5 60V61V62C198.09 62 201 59.0899 201 55.5H200ZM194.5 50V51C196.985 51 199 53.0147 199 55.5H200H201C201 51.9101 198.09 49 194.5 49V50ZM184.641 42.3203H183.641C183.641 47.114 187.527 51 192.32 51V50V49C188.631 49 185.641 46.0094 185.641 42.3203H184.641ZM192.32 27V26C187.527 26 183.641 29.886 183.641 34.6797H184.641H185.641C185.641 30.9906 188.631 28 192.32 28V27ZM196 27V28C198.761 28 201 25.7614 201 23H200H199C199 24.6569 197.657 26 196 26V27Z" fill="#DEDEDE" mask="url(#path-2-inside-1_197_1051)"/>
</g>
<path d="M56.768 46.112C56.032 46.112 55.3707 45.984 54.784 45.728C54.208 45.4613 53.7547 45.0987 53.424 44.64C53.0933 44.1707 52.9227 43.632 52.912 43.024H54.464C54.5173 43.5467 54.7307 43.9893 55.104 44.352C55.488 44.704 56.0427 44.88 56.768 44.88C57.4613 44.88 58.0053 44.7093 58.4 44.368C58.8053 44.016 59.008 43.568 59.008 43.024C59.008 42.5973 58.8907 42.2507 58.656 41.984C58.4213 41.7173 58.128 41.5147 57.776 41.376C57.424 41.2373 56.9493 41.088 56.352 40.928C55.616 40.736 55.024 40.544 54.576 40.352C54.1387 40.16 53.76 39.8613 53.44 39.456C53.1307 39.04 52.976 38.4853 52.976 37.792C52.976 37.184 53.1307 36.6453 53.44 36.176C53.7493 35.7067 54.1813 35.344 54.736 35.088C55.3013 34.832 55.9467 34.704 56.672 34.704C57.7173 34.704 58.5707 34.9653 59.232 35.488C59.904 36.0107 60.2827 36.704 60.368 37.568H58.768C58.7147 37.1413 58.4907 36.768 58.096 36.448C57.7013 36.1173 57.1787 35.952 56.528 35.952C55.92 35.952 55.424 36.112 55.04 36.432C54.656 36.7413 54.464 37.1787 54.464 37.744C54.464 38.1493 54.576 38.48 54.8 38.736C55.0347 38.992 55.3173 39.1893 55.648 39.328C55.9893 39.456 56.464 39.6053 57.072 39.776C57.808 39.9787 58.4 40.1813 58.848 40.384C59.296 40.576 59.68 40.88 60 41.296C60.32 41.7013 60.48 42.256 60.48 42.96C60.48 43.504 60.336 44.016 60.048 44.496C59.76 44.976 59.3333 45.3653 58.768 45.664C58.2027 45.9627 57.536 46.112 56.768 46.112ZM62.0786 41.6C62.0786 40.6933 62.26 39.904 62.6226 39.232C62.9853 38.5493 63.4866 38.0213 64.1266 37.648C64.7773 37.2747 65.5186 37.088 66.3506 37.088C67.428 37.088 68.3133 37.3493 69.0066 37.872C69.7106 38.3947 70.1746 39.12 70.3986 40.048H68.8306C68.6813 39.5147 68.388 39.0933 67.9506 38.784C67.524 38.4747 66.9906 38.32 66.3506 38.32C65.5186 38.32 64.8466 38.608 64.3346 39.184C63.8226 39.7493 63.5666 40.5547 63.5666 41.6C63.5666 42.656 63.8226 43.472 64.3346 44.048C64.8466 44.624 65.5186 44.912 66.3506 44.912C66.9906 44.912 67.524 44.7627 67.9506 44.464C68.3773 44.1653 68.6706 43.7387 68.8306 43.184H70.3986C70.164 44.08 69.6946 44.8 68.9906 45.344C68.2866 45.8773 67.4066 46.144 66.3506 46.144C65.5186 46.144 64.7773 45.9573 64.1266 45.584C63.4866 45.2107 62.9853 44.6827 62.6226 44C62.26 43.3173 62.0786 42.5173 62.0786 41.6ZM71.7974 41.584C71.7974 40.688 71.9787 39.904 72.3414 39.232C72.704 38.5493 73.2 38.0213 73.8294 37.648C74.4694 37.2747 75.1787 37.088 75.9574 37.088C76.7254 37.088 77.392 37.2533 77.9574 37.584C78.5227 37.9147 78.944 38.3307 79.2214 38.832V37.232H80.6934V46H79.2214V44.368C78.9334 44.88 78.5014 45.3067 77.9254 45.648C77.36 45.9787 76.6987 46.144 75.9414 46.144C75.1627 46.144 74.4587 45.952 73.8294 45.568C73.2 45.184 72.704 44.6453 72.3414 43.952C71.9787 43.2587 71.7974 42.4693 71.7974 41.584ZM79.2214 41.6C79.2214 40.9387 79.088 40.3627 78.8214 39.872C78.5547 39.3813 78.192 39.008 77.7334 38.752C77.2854 38.4853 76.7894 38.352 76.2454 38.352C75.7014 38.352 75.2054 38.48 74.7574 38.736C74.3094 38.992 73.952 39.3653 73.6854 39.856C73.4187 40.3467 73.2854 40.9227 73.2854 41.584C73.2854 42.256 73.4187 42.8427 73.6854 43.344C73.952 43.8347 74.3094 44.2133 74.7574 44.48C75.2054 44.736 75.7014 44.864 76.2454 44.864C76.7894 44.864 77.2854 44.736 77.7334 44.48C78.192 44.2133 78.5547 43.8347 78.8214 43.344C79.088 42.8427 79.2214 42.2613 79.2214 41.6ZM84.6099 34.16V46H83.1539V34.16H84.6099ZM95.0914 41.28C95.0914 41.5573 95.0754 41.8507 95.0434 42.16H88.0354C88.0887 43.024 88.382 43.7013 88.9154 44.192C89.4594 44.672 90.1154 44.912 90.8834 44.912C91.5127 44.912 92.0354 44.768 92.4514 44.48C92.878 44.1813 93.1767 43.7867 93.3474 43.296H94.9154C94.6807 44.1387 94.2114 44.8267 93.5074 45.36C92.8034 45.8827 91.9287 46.144 90.8834 46.144C90.0514 46.144 89.3047 45.9573 88.6434 45.584C87.9927 45.2107 87.4807 44.6827 87.1074 44C86.734 43.3067 86.5474 42.5067 86.5474 41.6C86.5474 40.6933 86.7287 39.8987 87.0914 39.216C87.454 38.5333 87.9607 38.0107 88.6114 37.648C89.2727 37.2747 90.03 37.088 90.8834 37.088C91.7154 37.088 92.4514 37.2693 93.0914 37.632C93.7314 37.9947 94.222 38.496 94.5634 39.136C94.9154 39.7653 95.0914 40.48 95.0914 41.28ZM93.5874 40.976C93.5874 40.4213 93.4647 39.9467 93.2194 39.552C92.974 39.1467 92.638 38.8427 92.2114 38.64C91.7954 38.4267 91.3314 38.32 90.8194 38.32C90.0834 38.32 89.454 38.5547 88.9314 39.024C88.4194 39.4933 88.126 40.144 88.0514 40.976H93.5874Z" fill="white"/>
<path d="M132.72 43.8408C133.07 42.9908 133.26 42.0808 133.26 41.0808C133.26 40.3608 133.15 39.6708 132.96 39.0308C132.31 39.1808 131.63 39.2608 130.92 39.2608C129.466 39.2623 128.033 38.9143 126.742 38.246C125.45 37.5777 124.338 36.6087 123.5 35.4208C122.604 37.5915 120.912 39.3374 118.77 40.3008C118.73 40.5508 118.73 40.8208 118.73 41.0808C118.73 42.0355 118.918 42.9808 119.283 43.8629C119.649 44.7449 120.184 45.5463 120.859 46.2214C122.223 47.5848 124.072 48.3508 126 48.3508C127.05 48.3508 128.06 48.1208 128.97 47.7108C129.54 48.8008 129.8 49.3408 129.78 49.3408C128.14 49.8908 126.87 50.1608 126 50.1608C123.58 50.1608 121.27 49.2108 119.57 47.5008C118.535 46.4707 117.766 45.2043 117.33 43.8108H116V39.2608H117.09C117.42 37.6533 118.179 36.1652 119.287 34.9543C120.395 33.7435 121.81 32.8552 123.382 32.3835C124.953 31.9119 126.624 31.8745 128.215 32.2755C129.806 32.6764 131.259 33.5007 132.42 34.6608C133.68 35.9163 134.539 37.517 134.89 39.2608H136V43.8108H135.94L132.38 47.0808L127.08 46.4808V44.8108H131.91L132.72 43.8408ZM123.27 40.8508C123.57 40.8508 123.86 40.9708 124.07 41.1908C124.281 41.4035 124.399 41.6911 124.399 41.9908C124.399 42.2904 124.281 42.578 124.07 42.7908C123.86 43.0008 123.57 43.1208 123.27 43.1208C122.64 43.1208 122.13 42.6208 122.13 41.9908C122.13 41.3608 122.64 40.8508 123.27 40.8508ZM128.72 40.8508C129.35 40.8508 129.85 41.3608 129.85 41.9908C129.85 42.6208 129.35 43.1208 128.72 43.1208C128.09 43.1208 127.58 42.6208 127.58 41.9908C127.58 41.6884 127.7 41.3984 127.914 41.1847C128.128 40.9709 128.418 40.8508 128.72 40.8508Z" fill="white"/>
<defs>
<filter id="filter0_d_197_1051" x="0" y="15" width="208" height="58" filterUnits="userSpaceOnUse" color-interpolation-filters="sRGB">
<feFlood flood-opacity="0" result="BackgroundImageFix"/>
<feColorMatrix in="SourceAlpha" type="matrix" values="0 0 0 0 0 0 0 0 0 0 0 0 0 0 0 0 0 0 127 0" result="hardAlpha"/>
<feOffset dy="4"/>
<feGaussianBlur stdDeviation="4"/>
<feComposite in2="hardAlpha" operator="out"/>
<feColorMatrix type="matrix" values="0 0 0 0 0 0 0 0 0 0 0 0 0 0 0 0 0 0 0.32 0"/>
<feBlend mode="normal" in2="BackgroundImageFix" result="effect1_dropShadow_197_1051"/>
<feBlend mode="normal" in="SourceGraphic" in2="effect1_dropShadow_197_1051" result="shape"/>
</filter>
</defs>
</svg>
